<?xml version="1.0" encoding="utf-8"?>
<!-- Generator: Adobe Illustrator 19.2.1, SVG Export Plug-In . SVG Version: 6.00 Build 0)  -->
<svg xmlns="http://www.w3.org/2000/svg" xmlns:xlink="http://www.w3.org/1999/xlink" version="1.1" id="Layer" x="0px" y="0px" width="512" height="512" viewBox="0 0 64 64" enable-background="new 0 0 64 64" xml:space="preserve">
<path fill="#CCE4FF" d="M32,46c7.73,0,14-6.27,14-14c0-7.73-6.27-14-14-14s-14,6.27-14,14C18,39.73,24.27,46,32,46z M32,26  c3.31,0,6,2.69,6,6s-2.69,6-6,6s-6-2.69-6-6S28.69,26,32,26z"/>
<path fill="#007AFF" d="M50,9H14c-2.757,0-5,2.243-5,5v36c0,2.757,2.243,5,5,5h36c2.757,0,5-2.243,5-5V14C55,11.243,52.757,9,50,9z   M53,50c0,1.654-1.346,3-3,3H14c-1.654,0-3-1.346-3-3V14c0-1.654,1.346-3,3-3h36c1.654,0,3,1.346,3,3V50z"/>
<path fill="#007AFF" d="M32,17c-8.271,0-15,6.729-15,15s6.729,15,15,15s15-6.729,15-15S40.271,17,32,17z M32,45  c-7.168,0-13-5.832-13-13s5.832-13,13-13s13,5.832,13,13S39.168,45,32,45z"/>
<path fill="#007AFF" d="M32,25c-3.86,0-7,3.14-7,7s3.14,7,7,7s7-3.14,7-7S35.86,25,32,25z M32,37c-2.757,0-5-2.243-5-5s2.243-5,5-5  s5,2.243,5,5S34.757,37,32,37z"/>
<path fill="#007AFF" d="M47,15c-1.103,0-2,0.897-2,2s0.897,2,2,2s2-0.897,2-2S48.103,15,47,15z M47.001,17.003  C47,17.002,47,17.001,47,17h1L47.001,17.003z"/>
</svg>
